<?xml version="1.0" encoding="UTF-8"?>
<svg version="1.1" xmlns="http://www.w3.org/2000/svg" width="489" height="510">
<path d="M0 0 C0 3.63 0 7.26 0 11 C2.6915625 10.9690625 2.6915625 10.9690625 5.4375 10.9375 C7.29166122 10.9161878 9.14712498 10.92773498 11 11 C12 12 12 12 12.09765625 14.50390625 C12.08025391 16.01791016 12.08025391 16.01791016 12.0625 17.5625 C12.05347656 18.57441406 12.04445313 19.58632813 12.03515625 20.62890625 C12.01775391 21.80259766 12.01775391 21.80259766 12 23 C13.04800781 22.96519531 13.04800781 22.96519531 14.1171875 22.9296875 C15.48230469 22.90261719 15.48230469 22.90261719 16.875 22.875 C18.23238281 22.84019531 18.23238281 22.84019531 19.6171875 22.8046875 C22 23 22 23 24 25 C24.25595969 26.92161137 24.25595969 26.92161137 24.26450634 29.32159519 C24.27258853 30.23470984 24.28067072 31.14782449 24.28899783 32.08860928 C24.28774521 33.09839791 24.2864926 34.10818654 24.28520203 35.14857483 C24.29169999 36.21634688 24.29819796 37.28411894 24.30489284 38.38424772 C24.32434389 41.98673934 24.32946669 45.58911208 24.3347168 49.19165039 C24.34564528 51.76531845 24.3574351 54.33898297 24.37002563 56.91264343 C24.39912193 63.19595316 24.41753149 69.47925159 24.43236574 75.76260943 C24.45004254 83.08931695 24.47807193 90.4159738 24.50649796 97.74264615 C24.55691021 110.83174705 24.59763412 123.9208605 24.63305664 137.01000977 C24.66736449 149.68484738 24.70875674 162.35963553 24.75805664 175.03442383 C24.76108359 175.81285336 24.76411054 176.59128289 24.76722922 177.3933012 C24.77025126 178.17043149 24.7732733 178.94756179 24.77638692 179.74824148 C24.83249895 194.19586545 24.88156778 208.64350633 24.92758697 223.09116571 C24.94397846 228.18478245 24.96247041 233.27838907 24.98166466 238.37199593 C25.00746095 245.25591329 25.02727935 252.13982817 25.043293 259.0237751 C25.04995399 261.54029378 25.05837073 264.05680857 25.06874657 266.57331467 C25.15692054 288.44999486 25.15692054 288.44999486 24.55915833 299.00828552 C24.52013765 299.70259424 24.48111698 300.39690296 24.44091386 301.11225134 C24.13212707 305.73574587 24.13212707 305.73574587 23 308 C20.49609375 308.4140625 20.49609375 308.4140625 17.4375 308.625 C15.91962891 308.73714844 15.91962891 308.73714844 14.37109375 308.8515625 C13.58863281 308.90054687 12.80617188 308.94953125 12 309 C12 312.3 12 315.6 12 319 C8.17679443 320.42258812 5.08718695 321.24042276 1 321 C1.01740234 321.93972656 1.01740234 321.93972656 1.03515625 322.8984375 C1.04869141 324.12433594 1.04869141 324.12433594 1.0625 325.375 C1.07410156 326.18710937 1.08570313 326.99921875 1.09765625 327.8359375 C1 330 1 330 0 332 C-19.34818828 332.7690189 -38.63423955 333.13427723 -58 333 C-58 339.93 -58 346.86 -58 354 C-54.86000488 353.98952637 -51.72000977 353.97905273 -48.48486328 353.96826172 C-38.13121448 353.93517973 -27.77756339 353.91305346 -17.42387581 353.89637566 C-11.14404641 353.88592113 -4.86427099 353.87173155 1.41552734 353.84912109 C7.47146259 353.82745216 13.52734579 353.81544396 19.5833168 353.81024551 C21.89827418 353.80653903 24.21322858 353.79930164 26.52816391 353.78853989 C29.76086419 353.77410405 32.9933471 353.77201873 36.22607422 353.77294922 C37.19136047 353.76575867 38.15664673 353.75856812 39.15118408 353.75115967 C40.02900543 353.753909 40.90682678 353.75665833 41.81124878 353.75949097 C42.57633696 353.75764738 43.34142513 353.75580379 44.1296978 353.75390434 C46 354 46 354 48 356 C48.27450545 359.34896654 48.08628804 362.63476663 48 366 C51.63 366 55.26 366 59 366 C60.15162713 375.15526413 60.14579468 384.24844632 60.1328125 393.45703125 C60.13348865 395.16688552 60.13446124 396.87673969 60.13571167 398.58659363 C60.1371816 402.17142654 60.13506186 405.75623446 60.13037109 409.34106445 C60.12475545 413.84310512 60.12800239 418.34508564 60.13380814 422.8471241 C60.15214692 439.5742967 60.10406953 456.29228017 59.5546875 473.01171875 C59.51594513 474.22801468 59.47720276 475.44431061 59.43728638 476.69746399 C59.37527542 478.33548225 59.37527542 478.33548225 59.31201172 480.0065918 C59.2761496 480.95414841 59.24028748 481.90170502 59.20333862 482.87797546 C59 485 59 485 58 486 C56.31816052 486.23287008 54.6287584 486.41264166 52.9375 486.5625 C51.308125 486.706875 49.67875 486.85125 48 487 C47.67 490.3 47.34 493.6 47 497 C43.48974856 498.17008381 40.34057465 498.13927563 36.68950653 498.12863445 C35.9356175 498.13038749 35.18172846 498.13214053 34.40499431 498.13394669 C31.85847915 498.13862837 29.31202054 498.13613564 26.76550293 498.13371277 C24.9295152 498.13557964 23.09352787 498.13787985 21.25754118 498.14057809 C16.19640621 498.14671765 11.1352877 498.14655998 6.07414985 498.14538372 C0.62214892 498.14518025 -4.82984664 498.15069319 -10.28184509 498.15544128 C-20.96862651 498.16375989 -31.65540242 498.16649666 -42.34218681 498.16705366 C-51.02439507 498.16752819 -59.70660152 498.16957977 -68.3888092 498.17275429 C-92.98108876 498.18156368 -117.57336419 498.18617921 -142.1656453 498.18542381 C-142.82876284 498.18540387 -143.49188038 498.18538392 -144.17509239 498.18536337 C-145.51607742 498.18532294 -146.85706244 498.18528114 -148.19804747 498.18523798 C-169.07002689 498.18462498 -189.94199007 498.19213572 -210.81396484 498.20581055 C-234.24933783 498.22115843 -257.68470192 498.2297649 -281.12008047 498.22884732 C-293.53416779 498.22851468 -305.9482368 498.23129124 -318.36231995 498.24202538 C-328.92941895 498.25110364 -339.49649135 498.25332771 -350.06359255 498.24651595 C-355.45931367 498.24323733 -360.85498365 498.24324212 -366.2507 498.2518692 C-371.18399624 498.25967614 -376.1172003 498.25836288 -381.05049413 498.24958507 C-382.84115972 498.24803718 -384.63183199 498.2499141 -386.4224897 498.25544515 C-388.84494245 498.26243582 -391.26706554 498.25726685 -393.68950653 498.24888897 C-394.39470167 498.25385715 -395.09989681 498.25882533 -395.82646149 498.26394406 C-399.45324769 498.23718264 -400.88894535 498.07403643 -404 496 C-404.29296875 493.6171875 -404.29296875 493.6171875 -404.1875 490.875 C-404.16042969 489.96492188 -404.13335937 489.05484375 -404.10546875 488.1171875 C-404.07066406 487.41851562 -404.03585937 486.71984375 -404 486 C-404.71027344 486.01160156 -405.42054688 486.02320313 -406.15234375 486.03515625 C-407.53099609 486.04869141 -407.53099609 486.04869141 -408.9375 486.0625 C-409.85402344 486.07410156 -410.77054687 486.08570313 -411.71484375 486.09765625 C-414 486 -414 486 -415 485 C-415.24561259 482.28462842 -415.42402342 479.59484034 -415.55419922 476.87304688 C-415.59630964 476.02510307 -415.63842007 475.17715927 -415.68180656 474.3035202 C-416.15445461 463.88189755 -416.14457787 453.46142343 -416.1328125 443.03125 C-416.13348805 440.89082834 -416.13446016 438.75040675 -416.13571167 436.60998535 C-416.13717173 432.16950739 -416.13508579 427.72904978 -416.13037109 423.28857422 C-416.12461868 417.59358389 -416.12799788 411.89864013 -416.13394356 406.20365143 C-416.13754774 401.80458216 -416.13641221 397.40552406 -416.13381577 393.00645447 C-416.13314897 390.90445449 -416.13396627 388.8024535 -416.13629532 386.70045471 C-416.13882547 383.78139522 -416.13497863 380.86241308 -416.12939453 377.94335938 C-416.13141876 377.07697342 -416.13344299 376.21058746 -416.13552856 375.31794739 C-416.12358992 371.96120526 -416.06893461 369.20680382 -415 366 C-411.37 366 -407.74 366 -404 366 C-404.04125 364.39125 -404.0825 362.7825 -404.125 361.125 C-404.1953125 358.3828125 -404.1953125 358.3828125 -404 356 C-402 354 -402 354 -400.11408043 353.75390434 C-399.34161791 353.75574793 -398.56915539 353.75759151 -397.77328491 353.75949097 C-396.88704941 353.75674164 -396.0008139 353.75399231 -395.08772278 353.75115967 C-394.11308578 353.75835022 -393.13844879 353.76554077 -392.13427734 353.77294922 C-390.5976519 353.77251114 -390.5976519 353.77251114 -389.02998352 353.77206421 C-385.63188307 353.77346151 -382.23399981 353.78904161 -378.8359375 353.8046875 C-376.48467122 353.8084162 -374.13340339 353.81126385 -371.78213501 353.81326294 C-365.58426649 353.82091062 -359.38649125 353.84056885 -353.18865967 353.8626709 C-346.86797345 353.88310491 -340.54727221 353.89225942 -334.2265625 353.90234375 C-321.81766069 353.92381368 -309.40885268 353.95900506 -297 354 C-297 346.74 -297 339.48 -297 332 C-316.47 332 -335.94 332 -356 332 C-356 328.37 -356 324.74 -356 321 C-357.5778125 321.061875 -357.5778125 321.061875 -359.1875 321.125 C-362.74010173 321.00852125 -364.84866641 320.52791932 -368 319 C-368 315.7 -368 312.4 -368 309 C-368.78246094 308.93941406 -369.56492187 308.87882812 -370.37109375 308.81640625 C-371.88896484 308.69072266 -371.88896484 308.69072266 -373.4375 308.5625 C-374.44683594 308.48128906 -375.45617187 308.40007812 -376.49609375 308.31640625 C-379 308 -379 308 -380 307 C-380.11159558 304.79382836 -380.15139451 302.58402699 -380.16494751 300.37507629 C-380.17059318 299.67293741 -380.17623884 298.97079852 -380.18205559 298.2473827 C-380.19988596 295.87171593 -380.21051847 293.4960703 -380.22119141 291.12036133 C-380.23237679 289.41891528 -380.24397471 287.7174719 -380.25595474 286.01603127 C-380.28740712 281.3521582 -380.31240725 276.68826998 -380.33610296 272.02435184 C-380.35679906 268.08538861 -380.38090902 264.14644924 -380.40499556 260.20750552 C-380.48247976 247.50244653 -380.54711882 234.7973363 -380.6089077 222.09219265 C-380.62493441 218.82586675 -380.64140598 215.5595434 -380.65803528 212.29322052 C-381.1906632 107.55432626 -381.1906632 107.55432626 -380.77550507 63.26256943 C-380.74999265 60.37416831 -380.72997721 57.48577292 -380.71124268 54.59732056 C-380.68155624 50.22648602 -380.63649981 45.85612934 -380.57638168 41.48560905 C-380.55707551 39.95640186 -380.54235752 38.42712813 -380.53277969 36.89782906 C-380.51877032 34.88925675 -380.48422509 32.88085743 -380.44824219 30.87255859 C-380.43412292 29.77414642 -380.42000366 28.67573425 -380.40545654 27.54403687 C-380.27165588 26.7045047 -380.13785522 25.86497253 -380 25 C-375.7975546 22.19836974 -372.99895065 22.85510288 -368 23 C-368 19.37 -368 15.74 -368 12 C-365.47524538 10.73762269 -363.68799534 10.90143596 -360.875 10.9375 C-359.26625 10.958125 -357.6575 10.97875 -356 11 C-356 7.37 -356 3.74 -356 0 C-353.36311848 -1.31844076 -351.39531031 -1.13230311 -348.44069672 -1.14145851 C-346.65699212 -1.15059523 -346.65699212 -1.15059523 -344.83725309 -1.15991652 C-343.51919566 -1.16157675 -342.20113822 -1.16323697 -340.84313965 -1.16494751 C-339.43785709 -1.17022612 -338.03257611 -1.17593839 -336.62729692 -1.18204916 C-332.75178873 -1.19761841 -328.87628635 -1.20693922 -325.00075674 -1.21526766 C-320.82604367 -1.2253056 -316.65135165 -1.24104285 -312.47665405 -1.25605774 C-304.29066608 -1.28456054 -296.10467127 -1.30765542 -287.91866142 -1.3288355 C-281.26356322 -1.34614855 -274.60847317 -1.36538188 -267.9533844 -1.38599777 C-267.00736906 -1.38892637 -266.06135373 -1.39185496 -265.08667126 -1.3948723 C-263.16495763 -1.40082928 -261.24324401 -1.40679049 -259.3215304 -1.41275589 C-241.27846069 -1.46853352 -223.23537804 -1.51817727 -205.19228512 -1.5657609 C-189.71573839 -1.60672097 -174.23921492 -1.65298127 -158.76269531 -1.703125 C-140.79807894 -1.761328 -122.83345741 -1.8161724 -104.86881495 -1.86572587 C-102.95159053 -1.87102394 -101.03436612 -1.87632655 -99.11714172 -1.88163376 C-98.17381311 -1.88424359 -97.23048449 -1.88685343 -96.25857016 -1.88954235 C-89.61676522 -1.90815032 -82.97497035 -1.92915717 -76.33317566 -1.9510994 C-68.23076468 -1.97780427 -60.12835314 -2.00083108 -52.02591878 -2.01918437 C-47.8931089 -2.02863836 -43.7603209 -2.03972031 -39.62752914 -2.05528831 C-35.83988791 -2.06950909 -32.05226539 -2.07893149 -28.26460201 -2.08461837 C-26.25395595 -2.08884887 -24.24332237 -2.09810383 -22.23269415 -2.10757029 C-4.24118068 -2.12059034 -4.24118068 -2.12059034 0 0 Z " fill="#C7CACE" transform="translate(423,5)"/>
<path d="M0 0 C77.88 0 155.76 0 236 0 C236 7.92 236 15.84 236 24 C238.53598877 23.99476318 241.07197754 23.98952637 243.68481445 23.98413086 C252.13845296 23.96743379 260.59209227 23.95646493 269.04574299 23.94818783 C274.1625844 23.94300704 279.27940868 23.93599861 284.39624023 23.92456055 C289.34999442 23.91355849 294.30373231 23.90768717 299.25749779 23.90512276 C301.13136234 23.90329927 303.00522618 23.89974002 304.87908363 23.89426994 C317.28780551 23.85954418 329.61513841 24.22071701 342 25 C342 28.63 342 32.26 342 36 C345.96 36 349.92 36 354 36 C354.01030746 37.01255356 354.02061493 38.02510712 354.03123474 39.06834412 C354.12879735 48.58944004 354.23151471 58.1104681 354.33933926 67.63145351 C354.39461165 72.52682125 354.44803841 77.4221949 354.49731445 82.31762695 C354.54489451 87.03793276 354.59723475 91.75816354 354.65294075 96.4783802 C354.67339322 98.28336797 354.69210141 100.08837635 354.70907402 101.89340019 C354.73305429 104.41265216 354.76311711 106.93176098 354.79467773 109.45092773 C354.8004332 110.20474228 354.80618866 110.95855682 354.81211853 111.73521423 C354.5585713 115.15701921 354.5585713 115.15701921 356 118 C356.02935741 120.65665505 355.99546393 123.28353207 355.9140625 125.9375 C355.89282318 126.732771 355.87158386 127.52804199 355.84970093 128.34741211 C355.80335989 130.03213494 355.75442547 131.71678808 355.703125 133.40136719 C355.62533723 135.98878305 355.55818621 138.57632213 355.4921875 141.1640625 C355.44595226 142.79689324 355.39909811 144.4297066 355.3515625 146.0625 C355.33171295 146.84165771 355.3118634 147.62081543 355.29141235 148.42358398 C355.11501302 153.88498698 355.11501302 153.88498698 354 155 C352.31816052 155.23287008 350.6287584 155.41264166 348.9375 155.5625 C346.4934375 155.7790625 346.4934375 155.7790625 344 156 C343.67 159.3 343.34 162.6 343 166 C339.48974856 167.17008381 336.34057465 167.13927563 332.68950653 167.12863445 C331.9356175 167.13038749 331.18172846 167.13214053 330.40499431 167.13394669 C327.85847915 167.13862837 325.31202054 167.13613564 322.76550293 167.13371277 C320.9295152 167.13557964 319.09352787 167.13787985 317.25754118 167.14057809 C312.19640621 167.14671765 307.1352877 167.14655998 302.07414985 167.14538372 C296.62214892 167.14518025 291.17015336 167.15069319 285.71815491 167.15544128 C275.03137349 167.16375989 264.34459758 167.16649666 253.65781319 167.16705366 C244.97560493 167.16752819 236.29339848 167.16957977 227.6111908 167.17275429 C203.01891124 167.18156368 178.42663581 167.18617921 153.8343547 167.18542381 C153.17123716 167.18540387 152.50811962 167.18538392 151.82490761 167.18536337 C150.48392258 167.18532294 149.14293756 167.18528114 147.80195253 167.18523798 C126.92997311 167.18462498 106.05800993 167.19213572 85.18603516 167.20581055 C61.75066217 167.22115843 38.31529808 167.2297649 14.87991953 167.22884732 C2.46583221 167.22851468 -9.9482368 167.23129124 -22.36231995 167.24202538 C-32.92941895 167.25110364 -43.49649135 167.25332771 -54.06359255 167.24651595 C-59.45931367 167.24323733 -64.85498365 167.24324212 -70.2507 167.2518692 C-75.18399624 167.25967614 -80.1172003 167.25836288 -85.05049413 167.24958507 C-86.84115972 167.24803718 -88.63183199 167.2499141 -90.4224897 167.25544515 C-92.84494245 167.26243582 -95.26706554 167.25726685 -97.68950653 167.24888897 C-98.39470167 167.25385715 -99.09989681 167.25882533 -99.82646149 167.26394406 C-103.45324769 167.23718264 -104.88894535 167.07403643 -108 165 C-108.41394695 161.63323148 -108.13087567 158.40276745 -108 155 C-111.3 155 -114.6 155 -118 155 C-118 115.73 -118 76.46 -118 36 C-114.04 36 -110.08 36 -106 36 C-106 32.37 -106 28.74 -106 25 C-105.00902313 25.00222061 -104.01804626 25.00444122 -102.99703979 25.00672913 C-93.55613051 25.02719718 -84.11522586 25.04208426 -74.67429924 25.05181217 C-69.82322117 25.05698183 -64.97216133 25.06396877 -60.12109375 25.07543945 C-30.54677781 25.1480984 -30.54677781 25.1480984 -1 24 C-0.67 16.08 -0.34 8.16 0 0 Z " fill="#C6C9CE" transform="translate(127,336)"/>
<path d="M0 0 C93.72 0 187.44 0 284 0 C284 58.74 284 117.48 284 178 C190.28 178 96.56 178 0 178 C0 119.26 0 60.52 0 0 Z " fill="#363B49" transform="translate(91,64)"/>
<path d="M0 0 C31.35 0 62.7 0 95 0 C95 22.77 95 45.54 95 69 C102.59 69.33 110.18 69.66 118 70 C119.76072584 71.76072584 119.12834784 74.0789629 119.13894653 76.4239502 C119.13591019 77.5598761 119.13591019 77.5598761 119.1328125 78.71875 C119.13376923 79.49182495 119.13472595 80.2648999 119.13571167 81.06140137 C119.13639341 82.69897544 119.13453957 84.33655219 119.13037109 85.97412109 C119.12502271 88.48931921 119.13031626 91.00433873 119.13671875 93.51953125 C119.13605797 95.10677123 119.1347768 96.6940111 119.1328125 98.28125 C119.13483673 99.03853394 119.13686096 99.79581787 119.13894653 100.5760498 C119.11495132 105.88504868 119.11495132 105.88504868 118 107 C116.31816052 107.23287008 114.6287584 107.41264166 112.9375 107.5625 C110.4934375 107.7790625 110.4934375 107.7790625 108 108 C107.67 111.3 107.34 114.6 107 118 C103.46604086 119.17798638 100.68581775 119.12957633 96.953125 119.1328125 C95.85003242 119.13479141 95.85003242 119.13479141 94.72465515 119.1368103 C92.23306411 119.13876463 89.74158026 119.13226827 87.25 119.125 C85.95740768 119.12367065 85.95740768 119.12367065 84.63870239 119.12231445 C56.42370524 119.08903941 28.20915176 118.48741515 0 118 C0 79.06 0 40.12 0 0 Z " fill="#A0A7AD" transform="translate(363,384)"/>
<path d="M0 0 C7.92 0 15.84 0 24 0 C24 66 24 132 24 200 C-77.64 200 -179.28 200 -284 200 C-284 192.41 -284 184.82 -284 177 C-190.28 177 -96.56 177 0 177 C0 118.59 0 60.18 0 0 Z " fill="#A0A6AB" transform="translate(375,65)"/>
<path d="M0 0 C77.88 0 155.76 0 236 0 C236 7.92 236 15.84 236 24 C158.12 24 80.24 24 0 24 C0 16.08 0 8.16 0 0 Z " fill="#A1A7AE" transform="translate(127,336)"/>
<path d="M0 0 C38.94 0 77.88 0 118 0 C118 3.96 118 7.92 118 12 C121.96 12 125.92 12 130 12 C130 19.92 130 27.84 130 36 C83.14 36 36.28 36 -12 36 C-12 28.08 -12 20.16 -12 12 C-8.04 12 -4.08 12 0 12 C0 8.04 0 4.08 0 0 Z " fill="#A1A8AE" transform="translate(56,466)"/>
<path d="M0 0 C7.92 0 15.84 0 24 0 C24 7.92 24 15.84 24 24 C20.04 24 16.08 24 12 24 C12 27.63 12 31.26 12 35 C8.04 35 4.08 35 0 35 C0 38.96 0 42.92 0 47 C-3.63 47 -7.26 47 -11 47 C-11 50.96 -11 54.92 -11 59 C-14.96 59 -18.92 59 -23 59 C-23 62.96 -23 66.92 -23 71 C-26.96 71 -30.92 71 -35 71 C-35 74.96 -35 78.92 -35 83 C-38.96 83 -42.92 83 -47 83 C-47 86.96 -47 90.92 -47 95 C-50.63 95 -54.26 95 -58 95 C-58 98.96 -58 102.92 -58 107 C-66.25 107 -74.5 107 -83 107 C-83 99.08 -83 91.16 -83 83 C-78.71 83 -74.42 83 -70 83 C-70 79.04 -70 75.08 -70 71 C-66.37 71 -62.74 71 -59 71 C-59 67.04 -59 63.08 -59 59 C-55.04 59 -51.08 59 -47 59 C-47 55.04 -47 51.08 -47 47 C-43.04 47 -39.08 47 -35 47 C-35 43.04 -35 39.08 -35 35 C-31.04 35 -27.08 35 -23 35 C-23 31.37 -23 27.74 -23 24 C-19.04 24 -15.08 24 -11 24 C-11 20.04 -11 16.08 -11 12 C-7.37 12 -3.74 12 0 12 C0 8.04 0 4.08 0 0 Z " fill="#F7F8F8" transform="translate(197,88)"/>
<path d="M0 0 C46.86 0 93.72 0 142 0 C142 7.92 142 15.84 142 24 C95.14 24 48.28 24 0 24 C0 16.08 0 8.16 0 0 Z " fill="#393F4C" transform="translate(44,419)"/>
<path d="M0 0 C46.86 0 93.72 0 142 0 C142 7.59 142 15.18 142 23 C95.14 23 48.28 23 0 23 C0 15.41 0 7.82 0 0 Z " fill="#383A48" transform="translate(44,384)"/>
<path d="M0 0 C7.92 0 15.84 0 24 0 C24 7.92 24 15.84 24 24 C20.04 24 16.08 24 12 24 C12 27.63 12 31.26 12 35 C8.04 35 4.08 35 0 35 C0 38.96 0 42.92 0 47 C-3.96 47 -7.92 47 -12 47 C-12 50.96 -12 54.92 -12 59 C-15.96 59 -19.92 59 -24 59 C-24 62.96 -24 66.92 -24 71 C-31.59 71 -39.18 71 -47 71 C-47 63.41 -47 55.82 -47 48 C-43.04 48 -39.08 48 -35 48 C-35 44.04 -35 40.08 -35 36 C-31.04 36 -27.08 36 -23 36 C-23 32.04 -23 28.08 -23 24 C-19.37 24 -15.74 24 -12 24 C-12 20.04 -12 16.08 -12 12 C-8.04 12 -4.08 12 0 12 C0 8.04 0 4.08 0 0 Z " fill="#F9FAFA" transform="translate(150,76)"/>
<path d="M0 0 C7.59 0 15.18 0 23 0 C23 23.1 23 46.2 23 70 C15.41 70 7.82 70 0 70 C0 46.9 0 23.8 0 0 Z " fill="#666767" transform="translate(399,431)"/>
<path d="M0 0 C7.92 0 15.84 0 24 0 C24.02290956 4.96628434 24.04283643 9.93238663 24.05493164 14.89868164 C24.0599719 16.58944316 24.06680405 18.28020029 24.07543945 19.97094727 C24.08751857 22.39600707 24.09323123 24.82100944 24.09765625 27.24609375 C24.10281754 28.00651474 24.10797882 28.76693573 24.11329651 29.55039978 C24.11349238 31.3673257 24.06197277 33.18413127 24 35 C22.33657163 36.66342837 20.2174291 36.36048097 17.9375 36.5625 C16.308125 36.706875 14.67875 36.85125 13 37 C12.67 40.3 12.34 43.6 12 47 C4.08 47 -3.84 47 -12 47 C-12 35.12 -12 23.24 -12 11 C-8.04 11 -4.08 11 0 11 C0 7.37 0 3.74 0 0 Z " fill="#3A3F4C" transform="translate(458,455)"/>
<path d="M0 0 C0.33 0 0.66 0 1 0 C1 7.26 1 14.52 1 22 C3.97 22 6.94 22 10 22 C10.66 22.33 11.32 22.66 12 23 C12 26.96 12 30.92 12 35 C8.04 35 4.08 35 0 35 C0 38.63 0 42.26 0 46 C-3.96 46 -7.92 46 -12 46 C-12 49.96 -12 53.92 -12 58 C-15.96 58 -19.92 58 -24 58 C-24 61.96 -24 65.92 -24 70 C-27.96 70 -31.92 70 -36 70 C-36 73.96 -36 77.92 -36 82 C-39.63 82 -43.26 82 -47 82 C-47 85.96 -47 89.92 -47 94 C-47.33 94 -47.66 94 -48 94 C-48.495 88.06 -48.495 88.06 -49 82 C-50.485 81.505 -50.485 81.505 -52 81 C-51.525625 80.608125 -51.05125 80.21625 -50.5625 79.8125 C-48.64820367 77.59191626 -48.38733012 75.86624291 -48 73 C-48.99 73 -49.98 73 -51 73 C-51 72.34 -51 71.68 -51 71 C-57.6 71 -64.2 71 -71 71 C-71 70.67 -71 70.34 -71 70 C-63.41 70 -55.82 70 -48 70 C-48 66.04 -48 62.08 -48 58 C-44.04 58 -40.08 58 -36 58 C-36 54.04 -36 50.08 -36 46 C-32.04 46 -28.08 46 -24 46 C-24 42.04 -24 38.08 -24 34 C-20.04 34 -16.08 34 -12 34 C-12 30.37 -12 26.74 -12 23 C-8.04 23 -4.08 23 0 23 C0 15.41 0 7.82 0 0 Z " fill="#3C404D" transform="translate(174,77)"/>
<path d="M0 0 C3.96 0 7.92 0 12 0 C12 35.31 12 70.62 12 107 C8.04 107 4.08 107 0 107 C0 71.69 0 36.38 0 0 Z " fill="#A1A8AD" transform="translate(257,395)"/>
<path d="M0 0 C3.96 0 7.92 0 12 0 C12 35.31 12 70.62 12 107 C8.37 107 4.74 107 1 107 C0 106 0 106 -0.12304783 104.22151089 C-0.12166514 103.0503729 -0.12166514 103.0503729 -0.12025452 101.85557556 C-0.12162918 100.96230057 -0.12300385 100.06902557 -0.12442017 99.14868164 C-0.12082489 98.16109863 -0.11722961 97.17351562 -0.11352539 96.15600586 C-0.11367142 95.12198135 -0.11381744 94.08795685 -0.1139679 93.02259827 C-0.11326827 89.58665914 -0.10547358 86.15077347 -0.09765625 82.71484375 C-0.09579225 80.33972707 -0.09436826 77.96461 -0.09336853 75.5894928 C-0.08954197 69.32423856 -0.0797105 63.05900733 -0.06866455 56.79376221 C-0.0584534 50.4061311 -0.05387155 44.01849629 -0.04882812 37.63085938 C-0.03808836 25.08722945 -0.02101029 12.54361663 0 0 Z " fill="#A2A8AF" transform="translate(292,395)"/>
<path d="M0 0 C3.96 0 7.92 0 12 0 C12 34.98 12 69.96 12 106 C8.04 106 4.08 106 0 106 C0 71.02 0 36.04 0 0 Z " fill="#A2A8AD" transform="translate(328,396)"/>
<path d="M0 0 C3.96 0 7.92 0 12 0 C12 34.98 12 69.96 12 106 C8.04 106 4.08 106 0 106 C0 71.02 0 36.04 0 0 Z " fill="#A1A7AD" transform="translate(221,396)"/>
<path d="M0 0 C0 3.63 0 7.26 0 11 C3.63 11 7.26 11 11 11 C11 11.33 11 11.66 11 12 C7.04 12 3.08 12 -1 12 C-1 8.37 -1 4.74 -1 1 C-117.82 1 -234.64 1 -355 1 C-355 4.63 -355 8.26 -355 12 C-358.63 12 -362.26 12 -366 12 C-366 11.67 -366 11.34 -366 11 C-362.7 11 -359.4 11 -356 11 C-356 7.37 -356 3.74 -356 0 C-353.36311848 -1.31844076 -351.39531031 -1.13230311 -348.44069672 -1.14145851 C-346.65699212 -1.15059523 -346.65699212 -1.15059523 -344.83725309 -1.15991652 C-343.51919566 -1.16157675 -342.20113822 -1.16323697 -340.84313965 -1.16494751 C-339.43785709 -1.17022612 -338.03257611 -1.17593839 -336.62729692 -1.18204916 C-332.75178873 -1.19761841 -328.87628635 -1.20693922 -325.00075674 -1.21526766 C-320.82604367 -1.2253056 -316.65135165 -1.24104285 -312.47665405 -1.25605774 C-304.29066608 -1.28456054 -296.10467127 -1.30765542 -287.91866142 -1.3288355 C-281.26356322 -1.34614855 -274.60847317 -1.36538188 -267.9533844 -1.38599777 C-267.00736906 -1.38892637 -266.06135373 -1.39185496 -265.08667126 -1.3948723 C-263.16495763 -1.40082928 -261.24324401 -1.40679049 -259.3215304 -1.41275589 C-241.27846069 -1.46853352 -223.23537804 -1.51817727 -205.19228512 -1.5657609 C-189.71573839 -1.60672097 -174.23921492 -1.65298127 -158.76269531 -1.703125 C-140.79807894 -1.761328 -122.83345741 -1.8161724 -104.86881495 -1.86572587 C-102.95159053 -1.87102394 -101.03436612 -1.87632655 -99.11714172 -1.88163376 C-98.17381311 -1.88424359 -97.23048449 -1.88685343 -96.25857016 -1.88954235 C-89.61676522 -1.90815032 -82.97497035 -1.92915717 -76.33317566 -1.9510994 C-68.23076468 -1.97780427 -60.12835314 -2.00083108 -52.02591878 -2.01918437 C-47.8931089 -2.02863836 -43.7603209 -2.03972031 -39.62752914 -2.05528831 C-35.83988791 -2.06950909 -32.05226539 -2.07893149 -28.26460201 -2.08461837 C-26.25395595 -2.08884887 -24.24332237 -2.09810383 -22.23269415 -2.10757029 C-4.24118068 -2.12059034 -4.24118068 -2.12059034 0 0 Z " fill="#F2F2F3" transform="translate(423,5)"/>
<path d="M0 0 C101.31 0 202.62 0 307 0 C307 0.33 307 0.66 307 1 C306.39003174 1.01981934 305.78006348 1.03963867 305.15161133 1.06005859 C302.37149467 1.15567876 299.59209154 1.26520705 296.8125 1.375 C295.37293945 1.42140625 295.37293945 1.42140625 293.90429688 1.46875 C292.50727539 1.52675781 292.50727539 1.52675781 291.08203125 1.5859375 C289.80162964 1.63306885 289.80162964 1.63306885 288.49536133 1.68115234 C285.97672779 1.88023725 285.97672779 1.88023725 283.76036072 3.00474548 C280.46433968 4.19313358 277.84159919 4.24717833 274.33886719 4.24291992 C273.35571738 4.24573345 273.35571738 4.24573345 272.35270596 4.24860382 C270.16731138 4.25226531 267.98224127 4.24147882 265.796875 4.23046875 C264.23081993 4.22960974 262.66476427 4.22953216 261.09870911 4.23017883 C256.86322806 4.22902081 252.62788648 4.21460611 248.39244461 4.19723511 C244.86787069 4.18425012 241.34329914 4.17869781 237.81870747 4.17279625 C201.54230859 4.10731503 165.2707549 3.61478787 129 3 C129 2.34 129 1.68 129 1 C86.43 1 43.86 1 0 1 C0 0.67 0 0.34 0 0 Z " fill="#BEC0C5" transform="translate(91,265)"/>
<path d="M0 0 C0.33 0 0.66 0 1 0 C1 4.95 1 9.9 1 15 C0.67 14.34 0.34 13.68 0 13 C-3.3 13 -6.6 13 -10 13 C-10 106.06 -10 199.12 -10 295 C-9.01 295.33 -8.02 295.66 -7 296 C-8.65 295.67 -10.3 295.34 -12 295 C-13.30072742 106.1157821 -13.30072742 106.1157821 -12.77595139 51.26212311 C-12.74999067 48.37396254 -12.72977439 45.48581051 -12.71096802 42.59759521 C-12.68126765 38.22669184 -12.63630231 33.85626314 -12.57631874 29.485672 C-12.55705393 27.95643783 -12.54236312 26.42713748 -12.53279686 24.89781189 C-12.51878573 22.88924524 -12.48423302 20.88085164 -12.44824219 18.87255859 C-12.43412292 17.77414642 -12.42000366 16.67573425 -12.40545654 15.54403687 C-12.27165588 14.7045047 -12.13785522 13.86497253 -12 13 C-7.7975546 10.19836974 -4.99895065 10.85510288 0 11 C0 7.37 0 3.74 0 0 Z " fill="#E3E3E6" transform="translate(55,17)"/>
<path d="M0 0 C7.92 0 15.84 0 24 0 C24 7.92 24 15.84 24 24 C16.08 24 8.16 24 0 24 C0 16.08 0 8.16 0 0 Z " fill="#A3A8AE" transform="translate(304,301)"/>
<path d="M0 0 C7.92 0 15.84 0 24 0 C24 7.92 24 15.84 24 24 C16.08 24 8.16 24 0 24 C0 16.08 0 8.16 0 0 Z " fill="#A2A8AE" transform="translate(257,301)"/>
<path d="M0 0 C7.92 0 15.84 0 24 0 C24 7.92 24 15.84 24 24 C16.08 24 8.16 24 0 24 C0 16.08 0 8.16 0 0 Z " fill="#A2A8AD" transform="translate(162,301)"/>
<path d="M0 0 C7.92 0 15.84 0 24 0 C24 7.92 24 15.84 24 24 C20.225625 24.020625 16.45125 24.04125 12.5625 24.0625 C11.37084229 24.071604 10.17918457 24.08070801 8.95141602 24.09008789 C7.55427368 24.09383423 7.55427368 24.09383423 6.12890625 24.09765625 C5.17056885 24.10289307 4.21223145 24.10812988 3.22485352 24.11352539 C1 24 1 24 0 23 C-0.08713831 21.29227642 -0.10700007 19.58101351 -0.09765625 17.87109375 C-0.09515869 16.93966553 -0.09266113 16.0082373 -0.09008789 15.04858398 C-0.08098389 13.85692627 -0.07187988 12.66526855 -0.0625 11.4375 C-0.041875 7.663125 -0.02125 3.88875 0 0 Z " fill="#650E10" transform="translate(351,301)"/>
<path d="M0 0 C7.92 0 15.84 0 24 0 C24 7.92 24 15.84 24 24 C20.225625 24.020625 16.45125 24.04125 12.5625 24.0625 C11.37084229 24.071604 10.17918457 24.08070801 8.95141602 24.09008789 C7.55427368 24.09383423 7.55427368 24.09383423 6.12890625 24.09765625 C5.17056885 24.10289307 4.21223145 24.10812988 3.22485352 24.11352539 C1 24 1 24 0 23 C-0.08713831 21.29227642 -0.10700007 19.58101351 -0.09765625 17.87109375 C-0.09515869 16.93966553 -0.09266113 16.0082373 -0.09008789 15.04858398 C-0.08098389 13.85692627 -0.07187988 12.66526855 -0.0625 11.4375 C-0.041875 7.663125 -0.02125 3.88875 0 0 Z " fill="#A2A8AE" transform="translate(209,301)"/>
<path d="M0 0 C7.92 0 15.84 0 24 0 C24.020625 3.774375 24.04125 7.54875 24.0625 11.4375 C24.071604 12.62915771 24.08070801 13.82081543 24.09008789 15.04858398 C24.09258545 15.98001221 24.09508301 16.91144043 24.09765625 17.87109375 C24.10551147 19.30859985 24.10551147 19.30859985 24.11352539 20.77514648 C24 23 24 23 23 24 C21.29227642 24.08713831 19.58101351 24.10700007 17.87109375 24.09765625 C16.93966553 24.09515869 16.0082373 24.09266113 15.04858398 24.09008789 C13.26109741 24.07643188 13.26109741 24.07643188 11.4375 24.0625 C7.663125 24.041875 3.88875 24.02125 0 24 C0 16.08 0 8.16 0 0 Z " fill="#A1A8AE" transform="translate(115,301)"/>
<path d="M0 0 C7.59 0 15.18 0 23 0 C23 7.59 23 15.18 23 23 C15.41 23 7.82 23 0 23 C0 15.41 0 7.82 0 0 Z " fill="#356535" transform="translate(399,396)"/>
<path d="M0 0 C0.77246252 0.00184359 1.54492504 0.00368717 2.34079552 0.00558662 C3.22703102 0.0028373 4.11326653 0.00008797 5.02635765 -0.00274467 C6.00099464 0.00444588 6.97563164 0.01163643 7.97980309 0.01904488 C9.51642853 0.0186068 9.51642853 0.0186068 11.08409691 0.01815987 C14.48219736 0.01955717 17.88008062 0.03513727 21.27814293 0.05078316 C23.62940921 0.05451186 25.98067703 0.0573595 28.33194542 0.0593586 C34.52981394 0.06700627 40.72758918 0.08666451 46.92542076 0.10876656 C53.24610698 0.12920057 59.56680822 0.13835508 65.88751793 0.14843941 C78.29641315 0.16990932 90.70523904 0.20405893 103.11408043 0.24609566 C103.11408043 0.90609566 103.11408043 1.56609566 103.11408043 2.24609566 C82.2509947 3.62622253 61.41267464 3.17017033 40.5227108 2.8511982 C35.7283639 2.77943362 30.93391518 2.71527282 26.13947105 2.65039253 C16.79756223 2.52289332 7.45579256 2.38722864 -1.88591957 2.24609566 C-1.88591957 5.87609566 -1.88591957 9.50609566 -1.88591957 13.24609566 C-5.84591957 13.24609566 -9.80591957 13.24609566 -13.88591957 13.24609566 C-13.88591957 52.18609566 -13.88591957 91.12609566 -13.88591957 131.24609566 C-14.21591957 131.24609566 -14.54591957 131.24609566 -14.88591957 131.24609566 C-15.78096942 117.24529597 -16.03455467 103.30431715 -16.01873207 89.27734566 C-16.01940762 87.136924 -16.02037973 84.99650241 -16.02163124 82.85608101 C-16.0230913 78.41560305 -16.02100536 73.97514544 -16.01629066 69.53466988 C-16.01053825 63.83967955 -16.01391745 58.14473579 -16.01986313 52.44974709 C-16.02346732 48.05067782 -16.02233178 43.65161972 -16.01973534 39.25255013 C-16.01906855 37.15055015 -16.01988584 35.04854916 -16.02221489 32.94655037 C-16.02474504 30.02749087 -16.0208982 27.10850874 -16.0153141 24.18945503 C-16.01733833 23.32306908 -16.01936256 22.45668312 -16.02144814 21.56404305 C-16.00950949 18.20730092 -15.95485418 15.45289948 -14.88591957 12.24609566 C-11.25591957 12.24609566 -7.62591957 12.24609566 -3.88591957 12.24609566 C-3.92716957 10.63734566 -3.96841957 9.02859566 -4.01091957 7.37109566 C-4.08123207 4.62890816 -4.08123207 4.62890816 -3.88591957 2.24609566 C-1.88591957 0.24609566 -1.88591957 0.24609566 0 0 Z " fill="#E8E8EB" transform="translate(22.88591957092285,358.75390434265137)"/>
<path d="M0 0 C2.0625 2.5625 2.0625 2.5625 3 5 C2.67 5.33 2.34 5.66 2 6 C1.97355761 9.80014912 2.02947802 13.58814363 2.12695312 17.38671875 C2.13791016 18.18464844 2.14886719 18.98257812 2.16015625 19.8046875 C2.17699463 20.53671387 2.19383301 21.26874023 2.21118164 22.02294922 C2 24 2 24 0 27 C-1.32 26.67 -2.64 26.34 -4 26 C-3.01 26 -2.02 26 -1 26 C-1 18.08 -1 10.16 -1 2 C-8.92 2 -16.84 2 -25 2 C-24.67 9.59 -24.34 17.18 -24 25 C-18.06 25.33 -12.12 25.66 -6 26 C-6 26.33 -6 26.66 -6 27 C-9.08325358 27.0582253 -12.16636505 27.09367134 -15.25 27.125 C-16.55904297 27.15013672 -16.55904297 27.15013672 -17.89453125 27.17578125 C-18.73886719 27.18222656 -19.58320313 27.18867188 -20.453125 27.1953125 C-21.22817383 27.20578613 -22.00322266 27.21625977 -22.80175781 27.22705078 C-25.25883539 26.97326556 -26.87311542 26.22444152 -29 25 C-28.83628906 24.37738281 -28.67257812 23.75476563 -28.50390625 23.11328125 C-27.80465098 18.79307618 -27.89515607 14.55543955 -27.9375 10.1875 C-27.94201172 9.30384766 -27.94652344 8.42019531 -27.95117188 7.50976562 C-27.96290134 5.33981441 -27.98083505 3.16989828 -28 1 C-21.10303741 -2.4484813 -7.34516537 -1.77297095 0 0 Z " fill="#D0C4C4" transform="translate(376,299)"/>
<path d="M0 0 C0.33 0 0.66 0 1 0 C1 7.26 1 14.52 1 22 C3.97 22 6.94 22 10 22 C10.66 22.33 11.32 22.66 12 23 C12 26.96 12 30.92 12 35 C8.04 35 4.08 35 0 35 C0 34.67 0 34.34 0 34 C3.63 34 7.26 34 11 34 C11 30.7 11 27.4 11 24 C9.411875 24.185625 7.82375 24.37125 6.1875 24.5625 C0.30503004 25.11254914 -5.13977677 24.68496116 -11 24 C-11 27.63 -11 31.26 -11 35 C-14.96 35 -18.92 35 -23 35 C-23 38.63 -23 42.26 -23 46 C-23.33 46 -23.66 46 -24 46 C-24 42.04 -24 38.08 -24 34 C-20.04 34 -16.08 34 -12 34 C-12 30.37 -12 26.74 -12 23 C-8.04 23 -4.08 23 0 23 C0 15.41 0 7.82 0 0 Z " fill="#6D7078" transform="translate(174,77)"/>
<path d="M0 0 C1.65 0 3.3 0 5 0 C3.02 0.99 3.02 0.99 1 2 C1.08378906 2.61746094 1.16757812 3.23492187 1.25390625 3.87109375 C1.96976927 9.82453683 1.86130989 15.06653189 1 21 C8.09727428 21.10808032 14.96094956 20.93854006 22 20 C21.88660796 17.35319096 21.75987127 14.70822482 21.625 12.0625 C21.57859375 10.93038086 21.57859375 10.93038086 21.53125 9.77539062 C21.4273685 7.84492605 21.22104386 5.92057919 21 4 C20.34 3.67 19.68 3.34 19 3 C19 2.34 19 1.68 19 1 C18.34 0.67 17.68 0.34 17 0 C18.98 0 20.96 0 23 0 C23 7.59 23 15.18 23 23 C15.41 23 7.82 23 0 23 C0 15.41 0 7.82 0 0 Z " fill="#3F6242" transform="translate(399,396)"/>
<path d="M0 0 C1.25 2.0625 1.25 2.0625 2 4 C1.67 4.33 1.34 4.66 1 5 C0.97355761 8.80014912 1.02947802 12.58814363 1.12695312 16.38671875 C1.13791016 17.18464844 1.14886719 17.98257812 1.16015625 18.8046875 C1.17699463 19.53671387 1.19383301 20.26874023 1.21118164 21.02294922 C1 23 1 23 -1 26 C-2.32 25.67 -3.64 25.34 -5 25 C-4.01 25 -3.02 25 -2 25 C-2 17.08 -2 9.16 -2 1 C-9.92 1 -17.84 1 -26 1 C-26 0.67 -26 0.34 -26 0 C-22.41713181 -0.19720979 -18.83369943 -0.38107522 -15.25 -0.5625 C-14.23421875 -0.61857422 -13.2184375 -0.67464844 -12.171875 -0.73242188 C-11.1921875 -0.78076172 -10.2125 -0.82910156 -9.203125 -0.87890625 C-8.30239258 -0.9260376 -7.40166016 -0.97316895 -6.47363281 -1.02172852 C-4.09055412 -1.00079543 -2.23729506 -0.81234376 0 0 Z " fill="#CBB3B2" transform="translate(377,300)"/>
<path d="M0 0 C1.72646584 3.45293169 2.2614789 4.67834617 2.44921875 8.2578125 C2.49240234 9.04800781 2.53558594 9.83820313 2.58007812 10.65234375 C2.63325195 11.87630859 2.63325195 11.87630859 2.6875 13.125 C2.73455078 13.94871094 2.78160156 14.77242188 2.83007812 15.62109375 C3.13502139 21.72995722 3.13502139 21.72995722 2 24 C-6.25 24 -14.5 24 -23 24 C-23 23.67 -23 23.34 -23 23 C-15.41 23 -7.82 23 0 23 C0 15.41 0 7.82 0 0 Z " fill="#889F8E" transform="translate(422,396)"/>
<path d="M0 0 C0.33 0.66 0.66 1.32 1 2 C1.66 2 2.32 2 3 2 C3 9.59 3 17.18 3 25 C2.34 25 1.68 25 1 25 C-0.27861615 22.44276771 -0.11336609 20.63262898 -0.09765625 17.7734375 C-0.09443359 16.7421875 -0.09121094 15.7109375 -0.08789062 14.6484375 C-0.07951172 13.56820313 -0.07113281 12.48796875 -0.0625 11.375 C-0.05798828 10.28703125 -0.05347656 9.1990625 -0.04882812 8.078125 C-0.03701776 5.38536211 -0.02054778 2.69270812 0 0 Z " fill="#8FA399" transform="translate(396,394)"/>
<path d="M0 0 C1.98 0 3.96 0 6 0 C5.01 0.495 5.01 0.495 4 1 C3.67 1.66 3.34 2.32 3 3 C2.67 3.66 2.34 4.32 2 5 C1.67 6.32 1.34 7.64 1 9 C0.67 6.03 0.34 3.06 0 0 Z " fill="#34373F" transform="translate(163,101)"/>
<path d="" fill="#FFFFFF" transform="translate(0,0)"/>
<path d="" fill="#FFFFFF" transform="translate(0,0)"/>
<path d="" fill="#FFFFFF" transform="translate(0,0)"/>
<path d="" fill="#FFFFFF" transform="translate(0,0)"/>
<path d="" fill="#FFFFFF" transform="translate(0,0)"/>
<path d="" fill="#FFFFFF" transform="translate(0,0)"/>
<path d="" fill="#FFFFFF" transform="translate(0,0)"/>
<path d="" fill="#FFFFFF" transform="translate(0,0)"/>
<path d="" fill="#FFFFFF" transform="translate(0,0)"/>
<path d="" fill="#FFFFFF" transform="translate(0,0)"/>
<path d="" fill="#FFFFFF" transform="translate(0,0)"/>
<path d="" fill="#FFFFFF" transform="translate(0,0)"/>
<path d="" fill="#FFFFFF" transform="translate(0,0)"/>
<path d="" fill="#FFFFFF" transform="translate(0,0)"/>
<path d="" fill="#FFFFFF" transform="translate(0,0)"/>
<path d="" fill="#FFFFFF" transform="translate(0,0)"/>
<path d="" fill="#FFFFFF" transform="translate(0,0)"/>
<path d="" fill="#FFFFFF" transform="translate(0,0)"/>
</svg>
